<svg width="145" height="145" viewBox="0 0 145 145" fill="none" xmlns="http://www.w3.org/2000/svg">
<path d="M24.6753 30.3502C36.2341 17.2235 53.1649 8.94141 72.0301 8.94141C79.2686 8.94141 86.2223 10.1607 92.6971 12.4052M12.3979 51.4099C10.1668 57.8675 8.95508 64.8005 8.95508 72.0165C8.95508 90.9084 17.2606 107.86 30.4195 119.42M51.5012 131.675C57.9367 133.889 64.843 135.092 72.0301 135.092C90.972 135.092 107.964 126.742 119.526 113.523M131.613 92.7641C133.876 86.2664 135.105 79.285 135.105 72.0165C135.105 53.1395 126.813 36.1993 113.672 24.64" stroke="#F97316" stroke-width="5.39"/>
<path d="M16.9152 12.8394L18.4358 11.3254C22.0805 10.8048 31.1488 10.7958 42.121 16.3264M16.9152 12.8394C16.9152 12.8394 12.2493 17.8598 9.73908 21.2264C7.22891 24.593 2.85867 31.2433 2.71484 34.5273C4.444 39.5064 7.34572 46.8707 15.0566 53.9036C23.8271 61.6268 35.1998 66.1933 38.9539 67.9175C37.8772 69.9254 35.6595 74.1578 35.2403 74.9151L63.057 67.7939L53.1181 41.1706L48.8195 49.5017C44.328 47.5154 34.8797 41.9894 27.2217 33.4819C19.5585 24.9687 17.0629 18.7753 16.9152 12.8394Z" stroke="#F97316" stroke-width="5.39"/>
<path d="M127.177 131.246L125.656 132.76C122.011 133.281 112.943 133.29 101.971 127.76M127.177 131.246C127.177 131.246 131.843 126.226 134.353 122.86C136.863 119.493 141.233 112.843 141.377 109.559C139.648 104.58 136.746 97.2152 129.035 90.1824C120.265 82.4592 108.892 77.8926 105.138 76.1684C106.215 74.1605 108.432 69.9281 108.851 69.1709L81.0348 76.292L90.9737 102.915L95.2723 94.5842C99.7638 96.5705 109.212 102.097 116.87 110.604C124.533 119.117 127.029 125.311 127.177 131.246Z" stroke="#F97316" stroke-width="5.39"/>
<path d="M131.285 16.9356L132.798 18.4575C133.315 22.1027 133.316 31.171 127.776 42.1382M131.285 16.9356C131.285 16.9356 126.269 12.2651 122.905 9.75187C119.541 7.23865 112.894 2.86238 109.61 2.71558C104.63 4.44022 97.2628 7.33525 90.2229 15.0397C82.4918 23.8032 77.915 35.1718 76.1873 38.9243C74.1804 37.8458 69.95 35.6243 69.1932 35.2044L76.289 63.0275L102.921 53.1128L94.5942 48.8066C96.5846 44.3169 102.119 34.8737 110.634 27.2234C119.154 19.5679 125.349 17.0779 131.285 16.9356Z" stroke="#F97316" stroke-width="5.39"/>
<path d="M12.8064 127.15L11.2938 125.628C10.7765 121.983 10.7757 112.915 16.3162 101.948M12.8064 127.15C12.8064 127.15 17.8225 131.821 21.1868 134.334C24.5512 136.847 31.1976 141.224 34.4814 141.37C39.462 139.646 46.829 136.751 53.8689 129.046C61.6 120.283 66.1768 108.914 67.9045 105.162C69.9114 106.24 74.1418 108.462 74.8986 108.882L67.8028 81.0584L41.1704 90.9732L49.4976 95.2793C47.5072 99.769 41.9726 109.212 33.4582 116.863C24.9381 124.518 18.7424 127.008 12.8064 127.15Z" stroke="#F97316" stroke-width="5.39"/>
</svg>
